# xmcd
#
# Track frame offsets: 
#        150
#        17270
#        36708
#        54356
#        78528
#        99441
#        123523
#        132738
#        148198
#        167654
#        183204
#        194209
#        220042
#        239855
#        263381
#
# Disc length: 3886 seconds
#
# Revision: 1
# Processed by: cddbd v1.5.2PL0 Copyright (c) Steve Scherf et al.
# Submitted via: ExactAudioCopy v0.99pb5
#
DISCID=de0f2c0f
DTITLE=Joe Bonamassa - Black Rock (Japanese Ed.)
DYEAR=2010
DGENRE=Blues/Rock
TTITLE0=Steal Your Heart Away
TTITLE1=I Know A Place
TTITLE2=When The Fire Hits The Sea
TTITLE3=Quarryman's Lament
TTITLE4=Spanish Boots
TTITLE5=Bird On A Wire
TTITLE6=Three Times A Fool
TTITLE7=Night Life 
TTITLE8=Wandering Earth
TTITLE9=Look Over Yonders Wall
TTITLE10=Athens To Athens
TTITLE11=Blue And Evil
TTITLE12=Baby You Gotta Change Your Mind
TTITLE13=Can't Find No Mercy (Bonus Track)
TTITLE14=Ghains And Things (Bonus Track)
EXTD=
EXTT0=
EXTT1=
EXTT2=
EXTT3=
EXTT4=
EXTT5=
EXTT6=
EXTT7=
EXTT8=
EXTT9=
EXTT10=
EXTT11=
EXTT12=
EXTT13=
EXTT14=
PLAYORDER=
